<svg width="83" height="83" viewBox="0 0 83 83" fill="none" xmlns="http://www.w3.org/2000/svg">
<path fill-rule="evenodd" clip-rule="evenodd" d="M37 73C56.8823 73 73 56.8823 73 37C73 17.1177 56.8823 1 37 1C17.1177 1 1 17.1177 1 37C1 56.8823 17.1177 73 37 73ZM37 74C57.4345 74 74 57.4345 74 37C74 16.5655 57.4345 0 37 0C16.5655 0 0 16.5655 0 37C0 57.4345 16.5655 74 37 74Z" fill="#D1D2D6"/>
<path fill-rule="evenodd" clip-rule="evenodd" d="M82.1464 82.8536L62.6464 63.3536L63.3536 62.6464L82.8536 82.1464L82.1464 82.8536Z" fill="#D1D2D6"/>
<path fill-rule="evenodd" clip-rule="evenodd" d="M37.1642 43.5C43.0758 43.5 48.3726 46.13 51.9494 50.2854L52.7073 49.633C48.9486 45.2663 43.3792 42.5 37.1642 42.5C30.9492 42.5 25.3798 45.2663 21.621 49.633L22.379 50.2854C25.9558 46.13 31.2526 43.5 37.1642 43.5Z" fill="#D1D2D6"/>
<path d="M51 27.5C51 28.3284 50.3284 29 49.5 29C48.6716 29 48 28.3284 48 27.5C48 26.6716 48.6716 26 49.5 26C50.3284 26 51 26.6716 51 27.5Z" fill="#D1D2D6"/>
<path d="M26 27.5C26 28.3284 25.3284 29 24.5 29C23.6716 29 23 28.3284 23 27.5C23 26.6716 23.6716 26 24.5 26C25.3284 26 26 26.6716 26 27.5Z" fill="#D1D2D6"/>
</svg>
