<svg width="83" height="83" fill="none" xmlns="http://www.w3.org/2000/svg"><path fill-rule="evenodd" clip-rule="evenodd" d="M37 73c19.882 0 36-16.118 36-36S56.882 1 37 1 1 17.118 1 37s16.118 36 36 36zm0 1c20.434 0 37-16.566 37-37S57.434 0 37 0 0 16.566 0 37s16.566 37 37 37z" fill="#D1D2D6"/><path fill-rule="evenodd" clip-rule="evenodd" d="M82.146 82.854l-19.5-19.5.708-.708 19.5 19.5-.708.708zM37.164 43.5c5.912 0 11.209 2.63 14.785 6.785l.758-.652C48.95 45.266 43.38 42.5 37.164 42.5s-11.784 2.766-15.543 7.133l.758.652c3.577-4.155 8.874-6.785 14.785-6.785z" fill="#D1D2D6"/><path d="M51 27.5a1.5 1.5 0 11-3 0 1.5 1.5 0 013 0zm-25 0a1.5 1.5 0 11-3 0 1.5 1.5 0 013 0z" fill="#D1D2D6"/></svg>