<svg width="90" height="100" fill="none" xmlns="http://www.w3.org/2000/svg"><path d="M86.566 76.342L46.42 99.052V81.369l25.013-13.763 15.132 8.737zm2.75-2.487V26.368l-14.684 8.487v30.527l14.684 8.473zM2.75 76.342l40.145 22.71V81.369L17.868 67.605 2.75 76.342zM0 73.855V26.368l14.684 8.487v30.527L0 73.855zM1.724 23.29L42.894 0v17.092l-26.38 14.513-.211.119-14.58-8.434zm85.868 0L46.422 0v17.092l26.38 14.5.211.119 14.58-8.421zM42.894 77.342L18.21 63.763V36.881l24.684 14.25v26.21zm3.526 0l24.684-13.566V36.881L46.42 51.131v26.21zM19.88 33.776l24.777-13.618 24.776 13.618L44.657 48.08 19.88 33.776z" fill="#D1D2D6"/></svg>